<?xml version="1.0" encoding="utf-8"?>
<!-- Generator: Adobe Illustrator 18.1.1, SVG Export Plug-In . SVG Version: 6.00 Build 0)  -->
<svg version="1.1" id="Layer_1" xmlns="http://www.w3.org/2000/svg" xmlns:xlink="http://www.w3.org/1999/xlink" x="0px" y="0px"
	 viewBox="0 0 100 100" enable-background="new 0 0 100 100" xml:space="preserve">
<g>
	<path fill-rule="evenodd" clip-rule="evenodd" fill="#FFFFFF" d="M50,0C29.5,0,12.9,16.6,12.9,37.1C12.9,61.6,50,99,50,99
		s37.1-37.8,37.1-61.9C87.1,16.6,70.5,0,50,0z M19.1,37.5C19.1,20.2,32.9,6.2,50,6.2c17.1,0,30.9,14,30.9,31.3
		C80.9,57.8,50,89.7,50,89.7S19.1,58,19.1,37.5z"/>
	<path fill-rule="evenodd" clip-rule="evenodd" fill="#FFFFFF" d="M50,24.8c-6.8,0-12.4,5.5-12.4,12.4c0,6.8,5.5,12.4,12.4,12.4
		c6.8,0,12.4-5.5,12.4-12.4C62.4,30.3,56.8,24.8,50,24.8z M50,43.3c-3.4,0-6.2-2.8-6.2-6.2c0-3.4,2.8-6.2,6.2-6.2
		c3.4,0,6.2,2.8,6.2,6.2C56.2,40.5,53.4,43.3,50,43.3z"/>
</g>
</svg>
