<?xml version="1.0" encoding="utf-8"?>
<!-- Generator: Adobe Illustrator 18.1.1, SVG Export Plug-In . SVG Version: 6.00 Build 0)  -->
<svg version="1.1" id="Layer_1" xmlns="http://www.w3.org/2000/svg" xmlns:xlink="http://www.w3.org/1999/xlink" x="0px" y="0px"
	 viewBox="0 0 22 32" enable-background="new 0 0 22 32" xml:space="preserve">
<g>
	<path fill-rule="evenodd" clip-rule="evenodd" fill="#FFFFFF" d="M11,0C4.9,0,0,4.9,0,11v10c0,6.1,4.9,11,11,11c6.1,0,11-4.9,11-11
		V11C22,4.9,17.1,0,11,0z M20,21c0,5-4,9-9,9c-5,0-9-4-9-9V11c0-5,4-9,9-9c5,0,9,4,9,9V21z"/>
	<path fill-rule="evenodd" clip-rule="evenodd" fill="#FFFFFF" d="M11,7c0.6,0,1,0.4,1,1v4c0,0.6-0.4,1-1,1c-0.6,0-1-0.4-1-1V8
		C10,7.4,10.4,7,11,7z"/>
</g>
</svg>
